<?xml version="1.0" encoding="utf-8"?>
<!-- Generator: Adobe Illustrator 21.1.0, SVG Export Plug-In . SVG Version: 6.00 Build 0)  -->
<svg version="1.1" id="Layer_1" xmlns="http://www.w3.org/2000/svg" xmlns:xlink="http://www.w3.org/1999/xlink" x="0px" y="0px"
	 viewBox="0 0 159.1 99.4" style="enable-background:new 0 0 159.1 99.4;" xml:space="preserve">
<style type="text/css">
	.st0{fill:#65699A;}
</style>
<title>jsday</title>
<path class="st0" d="M30.3,80c1.8,3.1,5.8,4.1,8.9,2.3c3-1.8,4.1-5.7,2.3-8.8l0,0L25.3,45.4l-15.6-1L30.3,80L30.3,80z M55.5,88.1
	l45.3-78.3c2.4-4.1,5.8-7.5,10-9.8h-6.3c-8.1,0-15.6,4.3-19.7,11.4L44.3,81.6c-2.7,4.7-8.6,6.2-13.3,3.6c-1.5-0.9-2.7-2.1-3.6-3.6
	L6.9,46L0,60l16.2,28.1c6.3,10.9,20.2,14.6,31,8.3C50.7,94.4,53.5,91.5,55.5,88.1z M128.8,19.5c-1.7-3.2-5.6-4.4-8.8-2.7
	s-4.4,5.6-2.7,8.8c0.1,0.1,0.2,0.3,0.2,0.4l0,0L133.8,54l15.6,1L128.8,19.5L128.8,19.5z M142.9,11.4c-6.3-10.9-20.1-14.6-31-8.3
	c-3.5,2-6.3,4.9-8.3,8.3L58.3,89.6c-2.4,4.1-5.8,7.5-10,9.8h6.3c8.1,0,15.6-4.3,19.7-11.3l40.5-70.2c2.7-4.7,8.6-6.2,13.3-3.6
	c1.5,0.9,2.7,2.1,3.6,3.6l20.6,35.6l6.9-14L142.9,11.4z"/>
<path class="st0" d="M5.4,0C4.2-0.1,3.2,0.7,3.1,1.9C2.9,3.1,3.8,4.1,5,4.2c0.1,0,0.3,0,0.4,0c1.2,0,2.3-0.9,2.3-2.1
	C7.7,0.9,6.6-0.1,5.4,0z"/>
<path class="st0" d="M3.4,17.9c0,1.1-0.5,1.6-1.3,1.6c-0.4,0-0.9-0.1-1.2-0.4L0,21.9c0.8,0.5,1.7,0.7,2.6,0.7c3.4,0,4.8-1.8,4.8-4.7
	V5.4h-4L3.4,17.9L3.4,17.9z"/>
<path class="st0" d="M14.5,15c-1.4-0.1-2.7-0.6-3.8-1.5l-1.6,2.6c1.6,1.2,3.5,1.8,5.5,1.8c3.4,0,5.5-1.6,5.5-3.9
	c0-4.7-6.7-3.7-6.7-5.1C13.3,8.3,14,8,14.8,8c1.2,0,2.4,0.4,3.4,1.2l1.6-2.5c-1.5-1-3.2-1.6-5-1.6c-3.5,0-5.2,1.8-5.2,3.9
	c0,4.7,6.6,3.5,6.6,5.1C16.2,14.7,15.6,15,14.5,15z"/>
<path class="st0" d="M26.3,17.9c1.3,0,2.6-0.6,3.4-1.7v1.4h4V0.7h-4v6.1c-0.8-1.1-2-1.8-3.4-1.7c-3.1,0-5.1,2.4-5.1,6.4
	S23.3,17.9,26.3,17.9z M27.6,8.3c0.8,0,1.5,0.4,2,1.1v4.1c-0.4,0.7-1.2,1.1-2,1.1c-1.5,0-2.3-1.3-2.3-3.1S26.1,8.3,27.6,8.3
	L27.6,8.3z"/>
<path class="st0" d="M44.1,16.2v1.4h4V5.4h-4v1.4c-0.7-1.1-2-1.8-3.3-1.7c-3.1,0-5.1,2.4-5.1,6.4s2.1,6.4,5.1,6.4
	C42.1,17.9,43.3,17.2,44.1,16.2z M39.8,11.5c0-1.9,0.8-3.2,2.3-3.2c0.8,0,1.6,0.5,2,1.1v4c-0.4,0.7-1.2,1.1-2,1.1
	C40.6,14.7,39.8,13.4,39.8,11.5z"/>
<path class="st0" d="M58.4,5.4L56,13.2l-2.4-7.8h-4.3l4.6,12.4l-0.3,0.8c-0.3,0.5-0.9,0.8-1.5,0.7c-0.3,0-0.6-0.1-0.8-0.2l-0.6,3.2
	c0.6,0.1,1.2,0.2,1.8,0.2c2.4,0,4-0.6,4.9-3.1l5.3-14L58.4,5.4L58.4,5.4z"/>
</svg>
