<?xml version="1.0" encoding="utf-8"?>
<!-- Generator: Adobe Illustrator 21.1.0, SVG Export Plug-In . SVG Version: 6.00 Build 0)  -->
<svg version="1.1" id="Layer_1" xmlns="http://www.w3.org/2000/svg" xmlns:xlink="http://www.w3.org/1999/xlink" x="0px" y="0px"
	 viewBox="0 0 841.9 595.3" style="enable-background:new 0 0 841.9 595.3;" xml:space="preserve">
<style type="text/css">
	.st0{fill:#6382B7;}
</style>
<title>phpday</title>
<path class="st0" d="M320.8,118.6c0-11.5-6.9-22-17.6-26.4c-17.1-7-35.5-10.6-54-10.6V81H192c-7.9,0-14.3,6.4-14.3,14.3V500
	c0,7.9,6.4,14.3,14.3,14.3h57.3v-0.7c18.5,0,36.8-3.6,54-10.6c10.6-4.5,17.6-14.9,17.6-26.4c0-0.1,0-0.2,0-0.2V118.9
	C320.8,118.9,320.8,118.7,320.8,118.6z"/>
<path class="st0" d="M134.7,81.7C61.6,89,5.9,150.6,5.9,224.1c0,0.2,0,0.5,0,0.7s0,0.5,0,0.7c0,73.5,55.7,135,128.8,142.4
	c7.9,0,14.3-6.4,14.3-14.3c0,0,0,0,0,0V96C149,88.1,142.6,81.7,134.7,81.7C134.7,81.7,134.7,81.7,134.7,81.7z"/>
<path class="st0" d="M492.5,191.5c0-11.5-6.9-22-17.6-26.4c-34.6-14.1-73.4-14.1-108,0c-10.6,4.5-17.5,14.9-17.5,26.4
	c0,0,0,0.2,0,0.2v211.8c0,0.1,0,0.2,0,0.2c0,11.5,6.9,22,17.6,26.4c34.6,14.1,73.4,14.1,108,0c10.6-4.5,17.6-14.9,17.6-26.4
	c0-0.1,0-0.2,0-0.2V191.7C492.6,191.7,492.5,191.6,492.5,191.5z"/>
<path class="st0" d="M836,224.1c0-73.5-55.7-135.1-128.8-142.4c-7.9,0-14.3,6.4-14.3,14.3v257.6c0,7.9,6.4,14.3,14.3,14.3
	C780.3,360.5,836,299,836,225.5c0-0.2,0-0.5,0-0.7C836,224.5,836,224.3,836,224.1z"/>
<path class="st0" d="M592.1,280.2c8.9,0,14.8-5.5,14.8-14c-0.1-4.3-1.8-8.5-4.7-11.6h-19.8c-3,3.1-4.8,7.3-4.9,11.6
	C577.5,274.7,583.3,280.2,592.1,280.2z"/>
<path class="st0" d="M592.3,315.5c-8.9,0-14.8,5.4-14.8,14c0,4.3,1.7,8.4,4.7,11.5h20c2.9-3.1,4.6-7.2,4.6-11.5
	C606.9,321,601.1,315.5,592.3,315.5z"/>
<path class="st0" d="M592.3,442.8c-8.9,0-14.8,5.4-14.8,14c0,4.3,1.7,8.4,4.7,11.5h20c2.9-3.1,4.6-7.2,4.6-11.5
	C606.9,448.3,601.1,442.8,592.3,442.8z"/>
<path class="st0" d="M649.9,81h-57.3v0.7c-18.5,0-36.9,3.6-54,10.6c-10.6,4.5-17.6,14.9-17.6,26.4c0,0.1,0,0.2,0,0.2v357.5
	c0,0.1,0,0.2,0,0.2c0,11.5,6.9,22,17.6,26.4c17.1,7,35.5,10.6,54,10.6v0.7h57.3c7.9,0,14.3-6.4,14.3-14.3V95.3
	C664.3,87.4,657.8,81,649.9,81z M566.4,190.8V177h51.5v13.8h-5.3c4.2,4,6.5,9.7,6.3,15.5c0,14.5-11.2,24.2-26.8,24.2
	c-15.6,0-26.6-9.8-26.6-24.2c-0.1-5.7,2.1-11.3,6-15.5L566.4,190.8z M547.9,240.8h70v13.8h-5.3c4.2,4,6.5,9.7,6.3,15.5
	c0,14.5-11.2,24.2-26.8,24.2c-15.6,0-26.6-9.8-26.6-24.2c-0.1-5.7,2.1-11.3,6-15.5h-23.5V240.8z M547.9,404.6h24.5
	c-4.7-4.4-7.2-10.6-7-17.1c0-14,10.1-19.8,22.8-19.8h29.6v13.8h-27.4c-7.6,0-12.3,3.2-12.3,10.6c0,6.8,4.9,10.7,9.1,12.4h30.6v13.8
	h-70V404.6z M636.5,482.1h-70.1v-13.8h5.3c-4.2-4-6.4-9.6-6.2-15.4c0-14.4,11.1-24.1,26.8-24.1c15.7,0,26.6,9.8,26.6,24.1
	c0.1,5.7-2,11.2-5.8,15.4h23.3L636.5,482.1z M636.5,354.8h-70.1V341h5.3c-4.2-4-6.4-9.6-6.2-15.4c0-14.4,11.1-24.1,26.8-24.1
	c15.7,0,26.6,9.8,26.6,24.1c0.1,5.7-2,11.2-5.8,15.4h23.3L636.5,354.8z M634,168.3l-11.1-2.1c1.8-3,2.8-6.3,2.9-9.8
	c0-4.5-2.2-6.6-6.6-8.6l-2.7-1.1l-50.2,23.4V155l36.5-14.2L566.4,127v-13.9l52.1,21.4c12.9,5.1,19,10.3,19,21.9
	C637.4,160.6,636.2,164.7,634,168.3z"/>
<path class="st0" d="M592.1,216.4c8.9,0,14.8-5.5,14.8-14c-0.1-4.3-1.8-8.5-4.7-11.6h-19.8c-3,3.1-4.8,7.3-4.9,11.6
	C577.5,210.8,583.3,216.4,592.1,216.4z"/>
</svg>
